<svg xmlns="http://www.w3.org/2000/svg"
shape-rendering="geometricPrecision"
width="4000" height="4000" viewBox="0 0 1024 1024">
  <metadata>null</metadata>

<path d="
M 75.118 639.292
C 81.577 639.296 88.042 639.108 94.507 639.157
C 99.006 639.191 103.502 639.228 108.003 639.215
C 127.402 639.158 149.193 639.779 164.221 653.786
C 166.89 656.274 169.448 658.972 171.263 662.159
C 172.98 665.174 174.104 668.391 174.908 671.754
C 175.942 676.085 176.095 680.654 175.771 685.084
C 175.293 691.602 173.055 698.16 169.629 703.71
C 163.745 713.243 154.437 719.632 143.718 722.582
C 139.426 723.763 135.121 724.133 130.763 724.892
C 129.756 725.068 126.943 724.916 126.428 725.833
C 128.025 726.922 130.116 727.378 131.833 728.309
C 135.743 730.428 139.24 733.256 142.452 736.311
C 158.193 751.281 169.036 771.021 185.858 784.975
C 188.457 787.13 191.266 789.366 194.234 790.988
C 196.054 791.982 198.389 792.303 200.101 793.424
C 193.95 793.756 187.534 793.931 181.366 793.471
C 176.217 793.087 171.491 793.218 166.603 791.207
C 158.764 787.983 153.561 781.238 148.622 774.669
C 141.85 765.664 135.566 756.302 128.99 747.154
C 124.535 740.957 120.035 734.564 114.959 728.857
C 113.302 726.993 111.183 725.634 109.049 724.386
C 108.643 724.148 105.774 722.663 106.044 722.484
C 106.693 722.053 109.256 723.095 110.057 723.177
C 113.911 723.574 117.768 724.183 121.644 724.332
C 123.802 724.415 125.724 723.83 127.774 723.274
C 134.409 721.477 140.662 718.347 145.324 713.158
C 148.624 709.485 151.207 704.61 152.851 699.983
C 159.122 682.341 155.385 657.387 138.546 646.728
C 130.761 641.801 122.458 641.348 113.521 641.116
C 109.035 641 104.483 640.646 99.998 640.873
C 98.478 640.949 99.056 642.966 99.038 643.997
C 98.975 647.494 98.894 650.999 98.898 654.506
C 98.916 669.503 98.798 684.501 98.79 699.499
C 98.779 721.996 98.906 744.501 98.665 766.997
C 98.605 772.577 98.544 778.119 98.669 783.701
C 98.744 787.064 98.886 790.784 101.095 793.516
C 99.511 793.727 97.626 793.417 96.003 793.427
C 92.169 793.452 88.336 793.459 84.503 793.426
C 82.254 793.406 79.956 793.267 77.715 793.485
C 77.304 793.525 75.699 793.909 75.705 793.357
C 78.474 791.015 78.257 786.816 78.435 783.495
C 78.864 775.459 78.436 767.367 78.444 759.321
C 78.477 729.881 78.456 700.439 78.438 670.999
C 78.433 664.196 78.465 657.393 78.413 650.591
C 78.382 646.507 78.283 642.238 75.118 639.292 Z"
opacity="1" fill="rgb(176,55,24)" fill-rule="evenodd" />
<path d="
M 179.465 735.111
C 180.075 726.481 182.775 717.631 187.574 710.389
C 200.986 690.146 228.336 681.277 250.738 691.148
C 263.768 696.889 273.252 707.868 278.429 720.956
C 281.191 727.938 282.299 735.723 281.796 743.209
C 281.09 753.726 277.211 765.282 270.81 773.692
C 256.857 792.025 231.293 798.616 210.218 789.635
C 203.732 786.871 198.281 782.476 193.454 777.392
C 188.779 772.468 185.264 766.504 182.98 760.127
C 180.143 752.209 178.872 743.51 179.465 735.111 Z
M 195.413 716.097
C 193.58 730.025 197.588 743.692 203.371 756.139
C 207.369 764.746 212.601 773.307 219.904 779.515
C 229.281 787.486 244.43 793.868 255.204 784.75
C 256.704 783.481 258.135 782.125 259.289 780.524
C 261.282 777.757 262.63 774.438 263.675 771.211
C 266.104 763.713 266.262 755.776 265.456 748.01
C 263.735 731.426 256.745 714.096 245.112 701.931
C 240.13 696.721 234.097 692.564 227.023 690.773
C 218.405 688.591 207.913 692.458 202.278 699.189
C 198.1 704.238 196.944 709.952 195.413 716.097 Z"
opacity="1" fill="rgb(174,53,23)" fill-rule="evenodd" />
<path d="
M 287.48 381.619
C 287.885 378.919 287.707 376.069 287.83 373.342
C 288 369.558 288.446 365.758 288.929 362.002
C 291.024 345.704 295.288 329.612 301.699 314.487
C 314.706 283.796 336.129 255.899 363.362 236.519
C 383.981 221.846 407.68 211.735 432.517 206.989
C 449.298 203.783 465.994 203.742 483.008 203.767
C 498.007 203.789 513.007 203.784 528.006 203.766
C 539.006 203.752 550.006 203.749 561.006 203.773
C 570.865 203.795 580.676 203.752 590.467 205.047
C 625.392 209.665 658.845 226.273 684.246 250.588
C 698.786 264.507 711.181 280.677 720.29 298.636
C 735.374 328.376 743.29 361.238 741.733 394.665
C 738.37 466.826 690.595 534.375 623.717 561.447
C 612.064 566.164 599.057 569.507 586.546 570.802
C 573.155 572.187 559.448 571.527 546.004 571.537
C 538.003 571.543 530.003 571.545 522.003 571.565
C 518.28 571.574 513.651 570.935 510.058 572.04
C 506.648 573.09 503.347 575.678 500.292 577.482
C 493.15 581.698 486.166 586.107 479.131 590.487
C 460.586 602.032 442.035 613.566 423.484 625.097
C 418.253 628.349 413.083 631.666 407.918 635.019
C 405.6 636.523 402.937 639.104 400.318 639.929
C 400.773 638.293 402.095 636.618 402.863 635.088
C 404.494 631.836 406.032 628.533 407.609 625.255
C 413.82 612.344 420.557 599.656 427.133 586.923
C 430.185 581.016 434.076 575.189 436.35 568.924
C 436.016 568.141 432.458 567.857 431.581 567.657
C 427.102 566.641 422.602 565.383 418.193 564.094
C 414.506 563.016 411.003 561.385 407.456 559.934
C 395.021 554.845 383.225 548.507 372.114 540.969
C 363.818 535.34 355.724 529.372 348.342 522.573
C 318.836 495.402 298.432 459.628 290.843 420.249
C 289.038 410.883 287.974 401.507 287.685 391.977
C 287.581 388.524 287.206 385.078 287.48 381.619 Z
M 398.895 389.589
C 395.786 408.631 410.881 428.71 430.987 427.556
C 436.696 427.228 441.461 425.574 446.356 422.676
C 450.227 420.384 453.397 417.138 455.978 413.494
C 458.763 409.564 460.396 404.997 461.183 400.268
C 461.935 395.753 461.596 391.044 460.471 386.616
C 459.398 382.395 457.566 378.149 454.828 374.733
C 447.158 365.162 434.116 360.259 422.153 363.722
C 417.74 364.999 413.601 367.391 410.048 370.276
C 407.317 372.494 404.788 374.988 402.933 378.003
C 400.784 381.497 399.553 385.558 398.895 389.589 Z
M 494.465 393.617
C 493.014 414.286 513.027 431.499 533.194 426.657
C 538.314 425.428 542.745 422.761 546.62 419.276
C 549.434 416.744 551.931 413.775 553.68 410.396
C 555.67 406.555 556.921 402.382 557.203 398.055
C 557.704 390.355 555.681 382.053 551.097 375.782
C 543.502 365.392 529.492 360.139 517.101 364.054
C 513.245 365.273 509.799 367.298 506.649 369.814
C 503.39 372.417 500.397 375.354 498.425 379.067
C 496.038 383.561 494.82 388.563 494.465 393.617 Z
M 590.961 390.096
C 588.477 404.905 597.331 420.735 611.655 425.777
C 628.851 431.83 649.809 420.893 652.909 402.39
C 653.863 396.7 653.856 390.326 651.931 384.812
C 646.819 370.164 631.971 360.476 616.467 363.333
C 612.115 364.134 608.276 366.142 604.618 368.556
C 601.48 370.627 598.459 373.276 596.264 376.351
C 593.321 380.476 591.793 385.137 590.961 390.096 Z"
opacity="1" fill="rgb(182,57,24)" fill-rule="evenodd" />
<path d="
M 288.441 735.615
C 289.743 715.477 302.071 697.468 321.137 690.061
C 324.43 688.782 328.078 688.155 331.567 687.686
C 354.034 684.666 376.299 696.405 385.692 717.205
C 389.761 726.215 391.318 735.807 390.68 745.648
C 388.838 774.062 363.475 795.464 335.357 793.665
C 330.319 793.343 325.293 792.063 320.627 790.155
C 299.099 781.351 286.977 758.266 288.441 735.615 Z
M 304.467 719.124
C 303.235 735.382 308.935 751.449 317.431 765.054
C 320.527 770.011 324.082 775.071 328.63 778.808
C 333.405 782.732 337.794 786.222 343.776 788.102
C 346.25 788.879 348.973 789.35 351.571 789.358
C 366.719 789.404 373.287 774.54 374.58 761.52
C 376.905 738.106 366.264 711.892 348.042 697.027
C 338.06 688.885 322.141 687.203 312.663 697.301
C 307.056 703.276 305.069 711.179 304.467 719.124 Z"
opacity="1" fill="rgb(173,54,23)" fill-rule="evenodd" />
<path d="
M 394.73 705.436
C 400.046 702.867 405.253 700.281 410.15 696.949
C 413.674 694.551 416.779 691.64 420.271 689.196
C 420.792 689.617 420.384 690.568 420.286 691.121
C 420.045 692.478 420.149 693.923 420.033 695.296
C 419.675 699.514 419.806 703.748 419.68 707.974
C 419.642 709.269 419.027 711.721 419.599 712.914
C 419.885 713.511 420.493 711.469 420.497 711.449
C 420.79 710.03 421.311 708.685 421.96 707.39
C 423.714 703.891 426.153 700.592 428.743 697.669
C 436.309 689.13 448.125 685.624 459.159 688.211
C 466.519 689.936 473.011 695.395 476.388 702.111
C 477.703 704.726 478.487 707.482 478.99 710.356
C 479.092 710.939 479.168 712.694 479.958 712.844
C 480.347 712.918 480.373 712.112 480.411 711.915
C 480.654 710.658 480.915 709.568 481.384 708.368
C 482.474 705.584 484.463 702.907 486.391 700.637
C 492.884 692.992 500.092 688.092 510.292 687.464
C 524.333 686.6 536.135 696.028 539.946 709.279
C 542.091 716.738 541.295 724.862 541.278 732.524
C 541.249 745.016 541.239 757.508 541.224 770
C 541.217 775.782 540.765 781.763 541.453 787.516
C 541.605 788.784 541.932 790.019 542.434 791.193
C 542.693 791.797 543.479 792.686 543.503 793.302
C 537.845 793.51 532.161 793.274 526.5 793.237
C 524.765 793.226 521.571 793.885 520.089 793
C 524.485 786.644 522.781 777.408 522.757 770.006
C 522.716 757.072 522.641 744.137 522.693 731.203
C 522.731 721.637 522.93 711.473 516.457 703.707
C 508.828 694.555 494.115 694.411 486.389 703.451
C 481.072 709.673 479.911 716.851 479.894 724.75
C 479.87 735.501 479.94 746.254 479.841 757.004
C 479.786 763.003 479.789 769.001 479.75 775.001
C 479.719 779.835 479.267 785.013 480.439 789.75
C 480.765 791.072 481.538 792.026 482.035 793.245
C 478.199 794.029 474.01 793.49 470.125 793.415
C 466.296 793.34 462.456 793.711 458.657 793.642
C 458.763 792.75 460.116 792.059 460.537 791.204
C 461.003 790.256 461.02 789.043 461.13 788.008
C 461.742 782.257 461.295 776.283 461.286 770.506
C 461.271 759.84 461.226 749.173 461.218 738.507
C 461.211 729.279 462.381 718.975 459.284 710.109
C 455.473 699.2 442.253 693.295 431.793 699.084
C 425.642 702.489 421.884 709.639 420.377 716.267
C 418.968 722.43 419.683 729.208 419.689 735.501
C 419.7 746.501 419.664 757.5 419.635 768.499
C 419.613 776.524 418.307 785.817 421.708 793.258
C 416.152 792.628 410.119 793.491 404.501 793.359
C 402.747 793.319 400.563 793.613 398.882 793.152
C 402.507 786.548 400.907 776.863 400.912 769.495
C 400.92 758.312 400.59 747.082 400.91 735.905
C 401.045 731.149 400.938 726.429 400.934 721.677
C 400.932 718.106 401.185 714.27 400.35 710.771
C 399.99 709.258 399.021 707.571 397.68 706.706
C 396.856 706.175 395.025 706.376 394.73 705.436 Z"
opacity="1" fill="rgb(174,54,23)" fill-rule="evenodd" />
<path d="
M 587.028 639.327
C 610.849 639.152 635.617 637.529 658.497 645.358
C 665.693 647.821 672.619 651.558 678.688 656.127
C 687.708 662.918 695.773 672.236 700.385 682.622
C 713.116 711.292 707.253 746.475 686.281 769.625
C 673.309 783.944 654.326 791.121 635.498 792.922
C 623.94 794.029 612.108 793.392 600.502 793.428
C 597.42 793.437 594.339 793.311 591.258 793.321
C 590.534 793.323 588.786 793.662 588.221 793.161
C 590.777 790.328 590.627 786.431 590.742 782.699
C 590.985 774.816 590.751 766.892 590.739 759.005
C 590.696 729.839 590.866 700.672 590.798 671.506
C 590.784 665.367 590.748 659.228 590.752 653.089
C 590.754 649.654 591.312 644.617 589.327 641.571
C 588.718 640.634 587.805 640.087 587.028 639.327 Z
M 611.01 771.129
C 610.818 775.564 610.928 780.025 610.954 784.464
C 610.968 786.865 610.711 789.574 611.097 791.928
C 623.09 792.501 635.682 791.434 646.615 786.086
C 691.287 764.238 697.136 694.74 664.181 660.394
C 655.846 651.706 645.294 645.925 633.716 642.892
C 626.837 641.09 618.662 640.409 611.57 641.006
C 610.55 644.193 611.238 648.662 611.248 652.001
C 611.269 659.334 611.222 666.667 611.225 674
C 611.236 695.833 611.171 717.666 611.155 739.499
C 611.149 746.5 611.085 753.501 611.092 760.501
C 611.095 763.914 611.631 767.769 611.01 771.129 Z"
opacity="1" fill="rgb(175,55,23)" fill-rule="evenodd" />
<path d="
M 713.313 708.656
C 720.813 704.315 727.457 699.757 733.688 693.662
C 735.059 692.321 736.666 691.2 737.897 689.732
C 738.081 689.672 737.755 692.198 737.742 692.419
C 737.655 693.909 737.707 695.408 737.612 696.899
C 737.248 702.601 737.309 708.354 737.186 714.068
C 737.139 716.216 736.971 718.388 737.019 720.534
C 737.026 720.841 736.841 722.604 737.337 722.472
C 738.051 722.281 738.38 719.27 738.572 718.564
C 739.63 714.688 741.231 710.966 743.217 707.465
C 744.744 704.772 746.036 701.919 748.012 699.509
C 754.867 691.143 764.882 685.786 775.94 686.957
C 775.764 687.617 775.509 688.258 775.366 688.925
C 774.273 693.347 773.534 697.966 772.88 702.475
C 772.617 704.291 772.771 707.169 771.945 708.791
C 770.104 706.787 767.476 705.979 764.903 705.337
C 757.639 703.524 749.605 705.095 744.322 710.635
C 737.585 718.523 737.461 729.433 737.409 739.208
C 737.334 753.216 737.062 767.24 737.141 781.247
C 737.157 784.073 737.139 787.081 738.119 789.773
C 738.385 790.501 740.181 792.835 740.061 793.276
C 734.584 793.823 728.937 793.408 723.444 793.298
C 721.49 793.258 718.398 793.834 716.622 793.074
C 718.441 791.33 718.743 788.899 719.048 786.456
C 719.704 781.211 719.249 775.78 719.241 770.506
C 719.221 756.84 719.324 743.172 719.25 729.506
C 719.229 725.613 719.192 721.719 719.119 717.826
C 719.078 715.659 719.215 712.928 718.416 710.899
C 718.056 709.982 717.481 709.07 716.406 708.987
C 715.724 708.934 713.647 709.375 713.313 708.656 Z"
opacity="1" fill="rgb(176,55,24)" fill-rule="evenodd" />
<path d="
M 772.441 734.612
C 773.017 727.159 775.083 719.937 778.646 713.364
C 781.646 707.829 785.426 703.784 790.092 699.63
C 794.844 695.4 800.886 691.294 807.024 689.447
C 818.572 685.973 831.021 686.449 842.132 691.145
C 861.329 699.258 874.627 721.462 873.101 742.258
C 872.428 751.436 870.319 760.183 865.763 768.243
C 852.051 792.499 818.852 801.339 795.628 785.494
C 778.991 774.142 770.916 754.338 772.441 734.612 Z
M 787.973 719.617
C 787.113 731.534 790.644 742.191 794.835 753.106
C 798.84 763.536 805.459 773.763 814.198 780.827
C 817.481 783.482 821.177 786.051 825.177 787.474
C 828.331 788.596 831.766 789.366 835.13 789.245
C 849.467 788.73 856.157 772.84 857.168 760.609
C 858.521 744.244 853.683 727.15 845.022 713.319
C 841.164 707.159 836.998 701.316 831.263 696.74
C 820.169 687.888 803.535 687.785 794.463 699.713
C 790.101 705.448 788.482 712.557 787.973 719.617 Z"
opacity="1" fill="rgb(173,54,23)" fill-rule="evenodd" />
<path d="
M 876.207 706.107
C 879.225 703.32 883.788 701.69 887.264 699.478
C 891.981 696.477 895.949 692.527 900.675 689.561
C 900.907 691.464 900.347 693.568 900.271 695.494
C 900.067 700.725 899.764 706.23 900.028 711.451
C 901.183 711.38 901.508 708.437 901.952 707.531
C 903.765 703.832 906.26 700.235 909.262 697.41
C 919.792 687.503 934.156 684.993 947.623 690.055
C 956.802 693.506 964.018 700.582 968.921 708.923
C 984.957 736.202 975.417 778.47 943.842 789.87
C 933.704 793.504 920.999 794.076 911.559 787.988
C 906.803 784.921 903.454 780.136 899.876 775.88
C 900.18 791.057 899.898 806.309 899.815 821.497
C 899.782 827.437 898.626 835.582 903.107 840.197
C 897.608 840.874 891.54 840.428 885.999 840.297
C 884.348 840.258 881.169 840.898 879.761 840.15
C 882.176 837.51 882.055 834.08 882.15 830.663
C 882.322 824.447 882.269 818.224 882.289 812.006
C 882.37 786.401 881.962 760.76 882.441 735.161
C 882.571 728.237 883.398 720.733 882.499 713.862
C 882.187 711.475 882.7 708.212 880.572 706.503
C 879.077 705.302 877.861 706.605 876.207 706.107 Z
M 900.464 716.593
C 899.672 721.592 900.12 726.948 900.15 732
C 900.199 740.332 900.133 748.664 900.111 756.996
C 900.096 762.688 899.072 769.306 902.404 774.267
C 910.464 786.267 925.101 794.923 939.501 789.117
C 941.689 788.235 943.79 786.963 945.588 785.436
C 952.809 779.304 956.54 770.076 958.162 760.939
C 961.805 740.416 956.718 717.354 941.639 702.466
C 938.586 699.451 935.008 696.718 930.907 695.316
C 925.624 693.51 918.352 693.471 913.411 696.28
C 906.695 700.098 901.636 709.199 900.464 716.593 Z"
opacity="1" fill="rgb(173,53,22)" fill-rule="evenodd" />

</svg>